<?xml version="1.0" encoding="utf-8"?>
<!-- Generated by Mocodo 4.0.8 -->
<svg width="460" height="551" viewBox="0 0 460 551" xmlns="http://www.w3.org/2000/svg">
<rect x="0" y="0" width="460" height="551" fill="#f7f7f7" stroke="none" stroke-width="0"/>

<!-- Association PARTICIPER2 -->
<g>
	<line x1="63" y1="60" x2="63" y2="178" stroke="#8073ac" stroke-width="2"/>
	<line x1="63" y1="313" x2="63" y2="178" stroke="#8073ac" stroke-width="2"/>
	<g>
		<path d="M93 153 a14 14 90 0 1 14 14 V178 h-88 V167 a14 14 90 0 1 14 -14" fill="#b2abd2" stroke="#b2abd2" stroke-width="0"/>
		<path d="M107 178 v11 a14 14 90 0 1 -14 14 H33 a14 14 90 0 1 -14 -14 V178 H88" fill="#d8daeb" stroke="#d8daeb" stroke-width="0"/>
		<rect x="19" y="153" width="88" height="50" fill="none" rx="14" stroke="#8073ac" stroke-width="2"/>
		<line x1="19" y1="178" x2="107" y2="178" stroke="#8073ac" stroke-width="1"/>
		<text x="26" y="170.75" fill="#000000" font-family="Verdana" font-size="12">PARTICIPER</text>
		<text x="26" y="195.8" fill="#000000" font-family="Verdana" font-size="12">materiel</text>
	</g>
	<text x="68" y="128" fill="#b35806" font-family="Verdana" font-size="12">0,N</text>
	<text x="68" y="220" fill="#b35806" font-family="Verdana" font-size="12">0,N</text>
</g>

<!-- Association RELIER -->
<g>
	<line x1="188" y1="474" x2="188" y2="313" stroke="#8073ac" stroke-width="2"/>
	<line x1="188" y1="178" x2="188" y2="313" stroke="#8073ac" stroke-width="2"/>
	<g>
		<path d="M204 288 a14 14 90 0 1 14 14 V313 h-60 V302 a14 14 90 0 1 14 -14" fill="#b2abd2" stroke="#b2abd2" stroke-width="0"/>
		<path d="M218 313 v11 a14 14 90 0 1 -14 14 H172 a14 14 90 0 1 -14 -14 V313 H60" fill="#d8daeb" stroke="#d8daeb" stroke-width="0"/>
		<rect x="158" y="288" width="60" height="50" fill="none" rx="14" stroke="#8073ac" stroke-width="2"/>
		<line x1="158" y1="313" x2="218" y2="313" stroke="#8073ac" stroke-width="1"/>
		<text x="166" y="305.75" fill="#000000" font-family="Verdana" font-size="12">RELIER</text>
	</g>
	<text x="193" y="407" fill="#b35806" font-family="Verdana" font-size="12">0,N</text>
	<text x="193" y="237" fill="#b35806" font-family="Verdana" font-size="12">1,1</text>
</g>

<!-- Association PARTICIPER1 -->
<g>
	<line x1="188" y1="474" x2="63" y2="474" stroke="#8073ac" stroke-width="2"/>
	<line x1="63" y1="313" x2="63" y2="474" stroke="#8073ac" stroke-width="2"/>
	<g>
		<path d="M93 449 a14 14 90 0 1 14 14 V474 h-88 V463 a14 14 90 0 1 14 -14" fill="#b2abd2" stroke="#b2abd2" stroke-width="0"/>
		<path d="M107 474 v11 a14 14 90 0 1 -14 14 H33 a14 14 90 0 1 -14 -14 V474 H88" fill="#d8daeb" stroke="#d8daeb" stroke-width="0"/>
		<rect x="19" y="449" width="88" height="50" fill="none" rx="14" stroke="#8073ac" stroke-width="2"/>
		<line x1="19" y1="474" x2="107" y2="474" stroke="#8073ac" stroke-width="1"/>
		<text x="26" y="466.75" fill="#000000" font-family="Verdana" font-size="12">PARTICIPER</text>
	</g>
	<text x="120" y="491" fill="#b35806" font-family="Verdana" font-size="12">0,N</text>
	<text x="68" y="415" fill="#b35806" font-family="Verdana" font-size="12">0,N</text>
</g>

<!-- Entity REPETITION -->
<g>
	<g>
		<rect x="9" y="9" width="108" height="25" fill="#fdb863" stroke="none" stroke-width="0" opacity="1"/>
		<rect x="9" y="34" width="108" height="77" fill="#fee0b6" stroke="none" stroke-width="0" opacity="1"/>
		<rect x="9" y="9" width="108" height="102" fill="none" stroke="#e08214" stroke-width="2" opacity="1"/>
		<line x1="9" y1="34" x2="117" y2="34" stroke="#e08214" stroke-width="1"/>
	</g>
	<text x="26" y="26.75" fill="#000000" font-family="Verdana" font-size="12">REPETITION</text>
	<text x="14" y="51.8" fill="#000000" font-family="Verdana" font-size="12">idRepetition</text>
	<line x1="14" y1="54" x2="87" y2="54" stroke="#000000" stroke-width="1"/>
	<text x="14" y="68.8" fill="#000000" font-family="Verdana" font-size="12">dateRepetition</text>
	<text x="14" y="85.8" fill="#000000" font-family="Verdana" font-size="12">dureeRepetition</text>
	<text x="14" y="102.8" fill="#000000" font-family="Verdana" font-size="12">tenue</text>
</g>

<!-- Entity SONDAGE -->
<g>
	<g>
		<rect x="139" y="136" width="98" height="25" fill="#fdb863" stroke="none" stroke-width="0" opacity="1"/>
		<rect x="139" y="161" width="98" height="59" fill="#fee0b6" stroke="none" stroke-width="0" opacity="1"/>
		<rect x="139" y="136" width="98" height="84" fill="none" stroke="#e08214" stroke-width="2" opacity="1"/>
		<line x1="139" y1="161" x2="237" y2="161" stroke="#e08214" stroke-width="1"/>
	</g>
	<text x="157" y="153.75" fill="#000000" font-family="Verdana" font-size="12">SONDAGE</text>
	<text x="144" y="178.8" fill="#000000" font-family="Verdana" font-size="12">idSondage</text>
	<line x1="144" y1="181" x2="208" y2="181" stroke="#000000" stroke-width="1"/>
	<text x="144" y="195.8" fill="#000000" font-family="Verdana" font-size="12">dateSondage</text>
	<text x="144" y="212.8" fill="#000000" font-family="Verdana" font-size="12">dureeSondage</text>
</g>

<!-- Entity MUSICIEN -->
<g>
	<g>
		<rect x="20" y="228" width="86" height="25" fill="#fdb863" stroke="none" stroke-width="0" opacity="1"/>
		<rect x="20" y="253" width="86" height="145" fill="#fee0b6" stroke="none" stroke-width="0" opacity="1"/>
		<rect x="20" y="228" width="86" height="170" fill="none" stroke="#e08214" stroke-width="2" opacity="1"/>
		<line x1="20" y1="253" x2="106" y2="253" stroke="#e08214" stroke-width="1"/>
	</g>
	<text x="32" y="245.75" fill="#000000" font-family="Verdana" font-size="12">MUSICIEN</text>
	<text x="25" y="270.8" fill="#000000" font-family="Verdana" font-size="12">idMusicien</text>
	<line x1="25" y1="273" x2="88" y2="273" stroke="#000000" stroke-width="1"/>
	<text x="25" y="287.8" fill="#000000" font-family="Verdana" font-size="12">nom</text>
	<text x="25" y="304.8" fill="#000000" font-family="Verdana" font-size="12">prenom</text>
	<text x="25" y="321.8" fill="#000000" font-family="Verdana" font-size="12">age</text>
	<text x="25" y="338.8" fill="#000000" font-family="Verdana" font-size="12">adresseMail</text>
	<text x="25" y="355.8" fill="#000000" font-family="Verdana" font-size="12">telephone</text>
	<text x="25" y="372.8" fill="#000000" font-family="Verdana" font-size="12">admin</text>
	<text x="25" y="389.8" fill="#000000" font-family="Verdana" font-size="12">imgMusicien</text>
</g>

<!-- Entity JOURNAL_SORTIE -->
<g>
	<g>
		<rect x="315" y="245" width="122" height="25" fill="#fdb863" stroke="none" stroke-width="0" opacity="1"/>
		<rect x="315" y="270" width="122" height="111" fill="#fee0b6" stroke="none" stroke-width="0" opacity="1"/>
		<rect x="315" y="245" width="122" height="136" fill="none" stroke="#e08214" stroke-width="2" opacity="1"/>
		<line x1="315" y1="270" x2="437" y2="270" stroke="#e08214" stroke-width="1"/>
	</g>
	<text x="321" y="262.75" fill="#000000" font-family="Verdana" font-size="12">JOURNAL_SORTIE</text>
	<text x="320" y="287.8" fill="#000000" font-family="Verdana" font-size="12">idMusicien</text>
	<line x1="320" y1="290" x2="383" y2="290" stroke="#000000" stroke-width="1"/>
	<text x="320" y="304.8" fill="#000000" font-family="Verdana" font-size="12">idSortie</text>
	<text x="320" y="321.8" fill="#000000" font-family="Verdana" font-size="12">intituleSortie</text>
	<text x="320" y="338.8" fill="#000000" font-family="Verdana" font-size="12">dateSortie</text>
	<text x="320" y="355.8" fill="#000000" font-family="Verdana" font-size="12">dureeSortie</text>
</g>

<!-- Entity SORTIE -->
<g>
	<g>
		<rect x="147" y="415" width="82" height="25" fill="#fdb863" stroke="none" stroke-width="0" opacity="1"/>
		<rect x="147" y="440" width="82" height="93" fill="#fee0b6" stroke="none" stroke-width="0" opacity="1"/>
		<rect x="147" y="415" width="82" height="118" fill="none" stroke="#e08214" stroke-width="2" opacity="1"/>
		<line x1="147" y1="440" x2="229" y2="440" stroke="#e08214" stroke-width="1"/>
	</g>
	<text x="165" y="432.75" fill="#000000" font-family="Verdana" font-size="12">SORTIE</text>
	<text x="152" y="457.8" fill="#000000" font-family="Verdana" font-size="12">idSortie</text>
	<line x1="152" y1="460" x2="200" y2="460" stroke="#000000" stroke-width="1"/>
	<text x="152" y="474.8" fill="#000000" font-family="Verdana" font-size="12">dateSortie</text>
	<text x="152" y="491.8" fill="#000000" font-family="Verdana" font-size="12">dureeSortie</text>
	<text x="152" y="508.8" fill="#000000" font-family="Verdana" font-size="12">lieu</text>
	<text x="152" y="525.8" fill="#000000" font-family="Verdana" font-size="12">type</text>
</g>

<!-- Entity JOURNAL_REPETITION -->
<g>
	<g>
		<rect x="301" y="406" width="150" height="25" fill="#fdb863" stroke="none" stroke-width="0" opacity="1"/>
		<rect x="301" y="431" width="150" height="111" fill="#fee0b6" stroke="none" stroke-width="0" opacity="1"/>
		<rect x="301" y="406" width="150" height="136" fill="none" stroke="#e08214" stroke-width="2" opacity="1"/>
		<line x1="301" y1="431" x2="451" y2="431" stroke="#e08214" stroke-width="1"/>
	</g>
	<text x="307" y="423.75" fill="#000000" font-family="Verdana" font-size="12">JOURNAL_REPETITION</text>
	<text x="306" y="448.8" fill="#000000" font-family="Verdana" font-size="12">idMusicien</text>
	<line x1="306" y1="451" x2="369" y2="451" stroke="#000000" stroke-width="1"/>
	<text x="306" y="465.8" fill="#000000" font-family="Verdana" font-size="12">idRepetition</text>
	<text x="306" y="482.8" fill="#000000" font-family="Verdana" font-size="12">nom</text>
	<text x="306" y="499.8" fill="#000000" font-family="Verdana" font-size="12">prenom</text>
	<text x="306" y="516.8" fill="#000000" font-family="Verdana" font-size="12">dateRepetition</text>
	<text x="306" y="533.8" fill="#000000" font-family="Verdana" font-size="12">dureeRepetition</text>
</g>
</svg>