<?xml version="1.0" encoding="utf-8"?>
<!-- Generated by Mocodo 4.2.1 -->
<svg width="817" height="878" viewBox="0 0 817 878" xmlns="http://www.w3.org/2000/svg">
<rect x="0" y="0" width="817" height="878" fill="#ffffff" stroke="none" stroke-width="0"/>

<!-- Association RELIER1 -->
<g>
	<line x1="291" y1="68" x2="58" y2="68" stroke="#d6604d" stroke-width="2"/>
	<line x1="58" y1="346" x2="58" y2="68" stroke="#d6604d" stroke-width="2"/>
	<g>
		<path d="M74 43 a14 14 90 0 1 14 14 V68 h-60 V57 a14 14 90 0 1 14 -14" fill="#f4a582" stroke="#f4a582" stroke-width="0"/>
		<path d="M88 68 v11 a14 14 90 0 1 -14 14 H42 a14 14 90 0 1 -14 -14 V68 H60" fill="#fddbc7" stroke="#fddbc7" stroke-width="0"/>
		<rect x="28" y="43" width="60" height="50" fill="none" rx="14" stroke="#d6604d" stroke-width="2"/>
		<line x1="28" y1="68" x2="88" y2="68" stroke="#d6604d" stroke-width="1"/>
		<text x="36" y="60.75" fill="#000000" font-family="Verdana" font-size="12">RELIER</text>
	</g>
	<text x="210" y="85" fill="#4d4d4d" font-family="Verdana" font-size="12">0,N</text>
	<text x="63" y="270" fill="#4d4d4d" font-family="Verdana" font-size="12">1,1</text>
</g>

<!-- Association PRESENCE_REPETITION -->
<g>
	<line x1="572" y1="346" x2="572" y2="68" stroke="#d6604d" stroke-width="2"/>
	<line x1="291" y1="68" x2="572" y2="68" stroke="#d6604d" stroke-width="2"/>
	<g>
		<path d="M639 43 a14 14 90 0 1 14 14 V68 h-162 V57 a14 14 90 0 1 14 -14" fill="#f4a582" stroke="#f4a582" stroke-width="0"/>
		<path d="M653 68 v11 a14 14 90 0 1 -14 14 H505 a14 14 90 0 1 -14 -14 V68 H162" fill="#fddbc7" stroke="#fddbc7" stroke-width="0"/>
		<rect x="491" y="43" width="162" height="50" fill="none" rx="14" stroke="#d6604d" stroke-width="2"/>
		<line x1="491" y1="68" x2="653" y2="68" stroke="#d6604d" stroke-width="1"/>
		<text x="499" y="60.75" fill="#000000" font-family="Verdana" font-size="12">PRESENCE_REPETITION</text>
	</g>
	<text x="577" y="253" fill="#4d4d4d" font-family="Verdana" font-size="12">O,N</text>
	<text x="350" y="60" fill="#4d4d4d" font-family="Verdana" font-size="12">O,N</text>
</g>

<!-- Association PARTICIPATION_REPETITION -->
<g>
	<line x1="291" y1="68" x2="439" y2="194" stroke="#d6604d" stroke-width="2"/>
	<line x1="572" y1="346" x2="439" y2="194" stroke="#d6604d" stroke-width="2"/>
	<g>
		<path d="M522 152 a14 14 90 0 1 14 14 V177 h-194 V166 a14 14 90 0 1 14 -14" fill="#f4a582" stroke="#f4a582" stroke-width="0"/>
		<path d="M536 177 v45 a14 14 90 0 1 -14 14 H356 a14 14 90 0 1 -14 -14 V177 H194" fill="#fddbc7" stroke="#fddbc7" stroke-width="0"/>
		<rect x="342" y="152" width="194" height="84" fill="none" rx="14" stroke="#d6604d" stroke-width="2"/>
		<line x1="342" y1="177" x2="536" y2="177" stroke="#d6604d" stroke-width="1"/>
		<text x="350" y="169.75" fill="#000000" font-family="Verdana" font-size="12">PARTICIPATION_REPETITION</text>
		<text x="349" y="194.8" fill="#000000" font-family="Verdana" font-size="12">idTypeInstrument</text>
		<text x="349" y="211.8" fill="#000000" font-family="Verdana" font-size="12">dataReponse</text>
		<text x="349" y="228.8" fill="#000000" font-family="Verdana" font-size="12">presence</text>
	</g>
	<text x="350" y="112.24" fill="#4d4d4d" font-family="Verdana" font-size="12">0,N</text>
	<text x="504" y="309.74" fill="#4d4d4d" font-family="Verdana" font-size="12">0,N</text>
</g>

<!-- Association RELIER2 -->
<g>
	<line x1="291" y1="346" x2="171" y2="346" stroke="#d6604d" stroke-width="2"/>
	<line x1="58" y1="346" x2="171" y2="346" stroke="#d6604d" stroke-width="2"/>
	<g>
		<path d="M187 321 a14 14 90 0 1 14 14 V346 h-60 V335 a14 14 90 0 1 14 -14" fill="#f4a582" stroke="#f4a582" stroke-width="0"/>
		<path d="M201 346 v11 a14 14 90 0 1 -14 14 H155 a14 14 90 0 1 -14 -14 V346 H60" fill="#fddbc7" stroke="#fddbc7" stroke-width="0"/>
		<rect x="141" y="321" width="60" height="50" fill="none" rx="14" stroke="#d6604d" stroke-width="2"/>
		<line x1="141" y1="346" x2="201" y2="346" stroke="#d6604d" stroke-width="1"/>
		<text x="149" y="338.75" fill="#000000" font-family="Verdana" font-size="12">RELIER</text>
	</g>
	<text x="208" y="363" fill="#4d4d4d" font-family="Verdana" font-size="12">0,N</text>
	<text x="112" y="363" fill="#4d4d4d" font-family="Verdana" font-size="12">1,1</text>
</g>

<!-- Association REPONDU -->
<g>
	<line x1="291" y1="346" x2="439" y2="346" stroke="#d6604d" stroke-width="2"/>
	<line x1="572" y1="346" x2="439" y2="346" stroke="#d6604d" stroke-width="2"/>
	<g>
		<path d="M483 304 a14 14 90 0 1 14 14 V329 h-116 V318 a14 14 90 0 1 14 -14" fill="#f4a582" stroke="#f4a582" stroke-width="0"/>
		<path d="M497 329 v45 a14 14 90 0 1 -14 14 H395 a14 14 90 0 1 -14 -14 V329 H116" fill="#fddbc7" stroke="#fddbc7" stroke-width="0"/>
		<rect x="381" y="304" width="116" height="84" fill="none" rx="14" stroke="#d6604d" stroke-width="2"/>
		<line x1="381" y1="329" x2="497" y2="329" stroke="#d6604d" stroke-width="1"/>
		<text x="409" y="321.75" fill="#000000" font-family="Verdana" font-size="12">REPONDU</text>
		<text x="388" y="346.8" fill="#000000" font-family="Verdana" font-size="12">reponseQuestion</text>
		<text x="388" y="363.8" fill="#000000" font-family="Verdana" font-size="12">reponseSpeciale</text>
		<text x="388" y="380.8" fill="#000000" font-family="Verdana" font-size="12">dateReponse</text>
	</g>
	<text x="352" y="363" fill="#4d4d4d" font-family="Verdana" font-size="12">0,N</text>
	<text x="504" y="363" fill="#4d4d4d" font-family="Verdana" font-size="12">0,N</text>
</g>

<!-- Association DISPONIBILITE -->
<g>
	<line x1="741" y1="68" x2="741" y2="346" stroke="#d6604d" stroke-width="2"/>
	<line x1="572" y1="346" x2="741" y2="346" stroke="#d6604d" stroke-width="2"/>
	<g>
		<path d="M781 321 a14 14 90 0 1 14 14 V346 h-108 V335 a14 14 90 0 1 14 -14" fill="#f4a582" stroke="#f4a582" stroke-width="0"/>
		<path d="M795 346 v11 a14 14 90 0 1 -14 14 H701 a14 14 90 0 1 -14 -14 V346 H108" fill="#fddbc7" stroke="#fddbc7" stroke-width="0"/>
		<rect x="687" y="321" width="108" height="50" fill="none" rx="14" stroke="#d6604d" stroke-width="2"/>
		<line x1="687" y1="346" x2="795" y2="346" stroke="#d6604d" stroke-width="1"/>
		<text x="694" y="338.75" fill="#000000" font-family="Verdana" font-size="12">DISPONIBILITE</text>
	</g>
	<text x="746" y="110" fill="#4d4d4d" font-family="Verdana" font-size="12">0,N</text>
	<text x="618" y="338" fill="#4d4d4d" font-family="Verdana" font-size="12">0,N</text>
</g>

<!-- Association PARTICIPATION_SORTIE -->
<g>
	<line x1="291" y1="641" x2="439" y2="498" stroke="#d6604d" stroke-width="2"/>
	<line x1="572" y1="346" x2="439" y2="498" stroke="#d6604d" stroke-width="2"/>
	<g>
		<path d="M508 456 a14 14 90 0 1 14 14 V481 h-166 V470 a14 14 90 0 1 14 -14" fill="#f4a582" stroke="#f4a582" stroke-width="0"/>
		<path d="M522 481 v45 a14 14 90 0 1 -14 14 H370 a14 14 90 0 1 -14 -14 V481 H166" fill="#fddbc7" stroke="#fddbc7" stroke-width="0"/>
		<rect x="356" y="456" width="166" height="84" fill="none" rx="14" stroke="#d6604d" stroke-width="2"/>
		<line x1="356" y1="481" x2="522" y2="481" stroke="#d6604d" stroke-width="1"/>
		<text x="364" y="473.75" fill="#000000" font-family="Verdana" font-size="12">PARTICIPATION_SORTIE</text>
		<text x="363" y="498.8" fill="#000000" font-family="Verdana" font-size="12">idTypeInstrument</text>
		<text x="363" y="515.8" fill="#000000" font-family="Verdana" font-size="12">dataReponse</text>
		<text x="363" y="532.8" fill="#000000" font-family="Verdana" font-size="12">presence</text>
	</g>
	<text x="337" y="611.49" fill="#4d4d4d" font-family="Verdana" font-size="12">0,N</text>
	<text x="504" y="391.26" fill="#4d4d4d" font-family="Verdana" font-size="12">0,N</text>
</g>

<!-- Association JOUER -->
<g>
	<line x1="572" y1="346" x2="741" y2="498" stroke="#d6604d" stroke-width="2"/>
	<line x1="741" y1="641" x2="741" y2="498" stroke="#d6604d" stroke-width="2"/>
	<g>
		<path d="M755 473 a14 14 90 0 1 14 14 V498 h-56 V487 a14 14 90 0 1 14 -14" fill="#f4a582" stroke="#f4a582" stroke-width="0"/>
		<path d="M769 498 v11 a14 14 90 0 1 -14 14 H727 a14 14 90 0 1 -14 -14 V498 H56" fill="#fddbc7" stroke="#fddbc7" stroke-width="0"/>
		<rect x="713" y="473" width="56" height="50" fill="none" rx="14" stroke="#d6604d" stroke-width="2"/>
		<line x1="713" y1="498" x2="769" y2="498" stroke="#d6604d" stroke-width="1"/>
		<text x="721" y="490.75" fill="#000000" font-family="Verdana" font-size="12">JOUER</text>
	</g>
	<text x="618" y="381.42" fill="#4d4d4d" font-family="Verdana" font-size="12">O,N</text>
	<text x="746" y="599" fill="#4d4d4d" font-family="Verdana" font-size="12">O,N</text>
</g>

<!-- Association RELIER -->
<g>
	<line x1="291" y1="641" x2="58" y2="641" stroke="#d6604d" stroke-width="2"/>
	<line x1="58" y1="346" x2="58" y2="641" stroke="#d6604d" stroke-width="2"/>
	<g>
		<path d="M74 616 a14 14 90 0 1 14 14 V641 h-60 V630 a14 14 90 0 1 14 -14" fill="#f4a582" stroke="#f4a582" stroke-width="0"/>
		<path d="M88 641 v11 a14 14 90 0 1 -14 14 H42 a14 14 90 0 1 -14 -14 V641 H60" fill="#fddbc7" stroke="#fddbc7" stroke-width="0"/>
		<rect x="28" y="616" width="60" height="50" fill="none" rx="14" stroke="#d6604d" stroke-width="2"/>
		<line x1="28" y1="641" x2="88" y2="641" stroke="#d6604d" stroke-width="1"/>
		<text x="36" y="633.75" fill="#000000" font-family="Verdana" font-size="12">RELIER</text>
	</g>
	<text x="223" y="658" fill="#4d4d4d" font-family="Verdana" font-size="12">0,N</text>
	<text x="63" y="431" fill="#4d4d4d" font-family="Verdana" font-size="12">1,1</text>
</g>

<!-- Association PRESENCE_SORTIE -->
<g>
	<line x1="572" y1="346" x2="572" y2="641" stroke="#d6604d" stroke-width="2"/>
	<line x1="291" y1="641" x2="572" y2="641" stroke="#d6604d" stroke-width="2"/>
	<g>
		<path d="M625 616 a14 14 90 0 1 14 14 V641 h-134 V630 a14 14 90 0 1 14 -14" fill="#f4a582" stroke="#f4a582" stroke-width="0"/>
		<path d="M639 641 v11 a14 14 90 0 1 -14 14 H519 a14 14 90 0 1 -14 -14 V641 H134" fill="#fddbc7" stroke="#fddbc7" stroke-width="0"/>
		<rect x="505" y="616" width="134" height="50" fill="none" rx="14" stroke="#d6604d" stroke-width="2"/>
		<line x1="505" y1="641" x2="639" y2="641" stroke="#d6604d" stroke-width="1"/>
		<text x="513" y="633.75" fill="#000000" font-family="Verdana" font-size="12">PRESENCE_SORTIE</text>
	</g>
	<text x="577" y="448" fill="#4d4d4d" font-family="Verdana" font-size="12">O,N</text>
	<text x="337" y="658" fill="#4d4d4d" font-family="Verdana" font-size="12">O,N</text>
</g>

<!-- Association CORRESPONDRE -->
<g>
	<line x1="291" y1="818" x2="439" y2="742" stroke="#d6604d" stroke-width="2"/>
	<line x1="291" y1="641" x2="439" y2="742" stroke="#d6604d" stroke-width="2"/>
	<g>
		<path d="M483 717 a14 14 90 0 1 14 14 V742 h-116 V731 a14 14 90 0 1 14 -14" fill="#f4a582" stroke="#f4a582" stroke-width="0"/>
		<path d="M497 742 v11 a14 14 90 0 1 -14 14 H395 a14 14 90 0 1 -14 -14 V742 H116" fill="#fddbc7" stroke="#fddbc7" stroke-width="0"/>
		<rect x="381" y="717" width="116" height="50" fill="none" rx="14" stroke="#d6604d" stroke-width="2"/>
		<line x1="381" y1="742" x2="497" y2="742" stroke="#d6604d" stroke-width="1"/>
		<text x="388" y="734.75" fill="#000000" font-family="Verdana" font-size="12">CORRESPONDRE</text>
	</g>
	<text x="327" y="815.07" fill="#4d4d4d" font-family="Verdana" font-size="12">O,N</text>
	<text x="337" y="666.2" fill="#4d4d4d" font-family="Verdana" font-size="12">O,N</text>
</g>

<!-- Entity REPETITION -->
<g>
	<g>
		<rect x="237" y="9" width="108" height="25" fill="#bababa" stroke="none" stroke-width="0" opacity="1"/>
		<rect x="237" y="34" width="108" height="93" fill="#e0e0e0" stroke="none" stroke-width="0" opacity="1"/>
		<rect x="237" y="9" width="108" height="118" fill="none" stroke="#878787" stroke-width="2" opacity="1"/>
		<line x1="237" y1="34" x2="345" y2="34" stroke="#878787" stroke-width="1"/>
	</g>
	<text x="254" y="26.75" fill="#000000" font-family="Verdana" font-size="12">REPETITION</text>
	<text x="242" y="51.8" fill="#000000" font-family="Verdana" font-size="12">idRepetition</text>
	<line x1="242" y1="54" x2="315" y2="54" stroke="#000000" stroke-width="1"/>
	<text x="242" y="68.8" fill="#000000" font-family="Verdana" font-size="12">dateRepetition</text>
	<text x="242" y="85.8" fill="#000000" font-family="Verdana" font-size="12">dureeRepetition</text>
	<text x="242" y="102.8" fill="#000000" font-family="Verdana" font-size="12">lieu</text>
	<text x="242" y="119.8" fill="#000000" font-family="Verdana" font-size="12">tenue</text>
</g>

<!-- Entity DEMI_JOURNNE -->
<g>
	<g>
		<rect x="687" y="43" width="108" height="25" fill="#bababa" stroke="none" stroke-width="0" opacity="1"/>
		<rect x="687" y="68" width="108" height="25" fill="#e0e0e0" stroke="none" stroke-width="0" opacity="1"/>
		<rect x="687" y="43" width="108" height="50" fill="none" stroke="#878787" stroke-width="2" opacity="1"/>
		<line x1="687" y1="68" x2="795" y2="68" stroke="#878787" stroke-width="1"/>
	</g>
	<text x="692" y="60.75" fill="#000000" font-family="Verdana" font-size="12">DEMI_JOURNNE</text>
	<text x="692" y="85.8" fill="#000000" font-family="Verdana" font-size="12">date</text>
	<line x1="692" y1="88" x2="720" y2="88" stroke="#000000" stroke-width="1"/>
</g>

<!-- Entity SONDAGE -->
<g>
	<g>
		<rect x="9" y="278" width="98" height="25" fill="#bababa" stroke="none" stroke-width="0" opacity="1"/>
		<rect x="9" y="303" width="98" height="111" fill="#e0e0e0" stroke="none" stroke-width="0" opacity="1"/>
		<rect x="9" y="278" width="98" height="136" fill="none" stroke="#878787" stroke-width="2" opacity="1"/>
		<line x1="9" y1="303" x2="107" y2="303" stroke="#878787" stroke-width="1"/>
	</g>
	<text x="27" y="295.75" fill="#000000" font-family="Verdana" font-size="12">SONDAGE</text>
	<text x="14" y="320.8" fill="#000000" font-family="Verdana" font-size="12">idSondage</text>
	<line x1="14" y1="323" x2="78" y2="323" stroke="#000000" stroke-width="1"/>
	<text x="14" y="337.8" fill="#000000" font-family="Verdana" font-size="12">idSortie</text>
	<text x="14" y="354.8" fill="#000000" font-family="Verdana" font-size="12">idRepetition</text>
	<text x="14" y="371.8" fill="#000000" font-family="Verdana" font-size="12">dateSondage</text>
	<text x="14" y="388.8" fill="#000000" font-family="Verdana" font-size="12">dureeSondage</text>
	<text x="14" y="405.8" fill="#000000" font-family="Verdana" font-size="12">message</text>
</g>

<!-- Entity QUESTION -->
<g>
	<g>
		<rect x="235" y="295" width="112" height="25" fill="#bababa" stroke="none" stroke-width="0" opacity="1"/>
		<rect x="235" y="320" width="112" height="77" fill="#e0e0e0" stroke="none" stroke-width="0" opacity="1"/>
		<rect x="235" y="295" width="112" height="102" fill="none" stroke="#878787" stroke-width="2" opacity="1"/>
		<line x1="235" y1="320" x2="347" y2="320" stroke="#878787" stroke-width="1"/>
	</g>
	<text x="258" y="312.75" fill="#000000" font-family="Verdana" font-size="12">QUESTION</text>
	<text x="240" y="337.8" fill="#000000" font-family="Verdana" font-size="12">idQuestion</text>
	<line x1="240" y1="340" x2="305" y2="340" stroke="#000000" stroke-width="1"/>
	<text x="240" y="354.8" fill="#000000" font-family="Verdana" font-size="12">intitule</text>
	<text x="240" y="371.8" fill="#000000" font-family="Verdana" font-size="12">reponseQuestion</text>
	<text x="240" y="388.8" fill="#000000" font-family="Verdana" font-size="12">datefin</text>
</g>

<!-- Entity MUSICIEN -->
<g>
	<g>
		<rect x="531" y="261" width="82" height="25" fill="#bababa" stroke="none" stroke-width="0" opacity="1"/>
		<rect x="531" y="286" width="82" height="145" fill="#e0e0e0" stroke="none" stroke-width="0" opacity="1"/>
		<rect x="531" y="261" width="82" height="170" fill="none" stroke="#878787" stroke-width="2" opacity="1"/>
		<line x1="531" y1="286" x2="613" y2="286" stroke="#878787" stroke-width="1"/>
	</g>
	<text x="541" y="278.75" fill="#000000" font-family="Verdana" font-size="12">MUSICIEN</text>
	<text x="536" y="303.8" fill="#000000" font-family="Verdana" font-size="12">idMusicien</text>
	<line x1="536" y1="306" x2="599" y2="306" stroke="#000000" stroke-width="1"/>
	<text x="536" y="320.8" fill="#000000" font-family="Verdana" font-size="12">nom</text>
	<text x="536" y="337.8" fill="#000000" font-family="Verdana" font-size="12">prenom</text>
	<text x="536" y="354.8" fill="#000000" font-family="Verdana" font-size="12">password</text>
	<text x="536" y="371.8" fill="#000000" font-family="Verdana" font-size="12">age</text>
	<text x="536" y="388.8" fill="#000000" font-family="Verdana" font-size="12">adresseMail</text>
	<text x="536" y="405.8" fill="#000000" font-family="Verdana" font-size="12">telephone</text>
	<text x="536" y="422.8" fill="#000000" font-family="Verdana" font-size="12">admin</text>
</g>

<!-- Entity SORTIE -->
<g>
	<g>
		<rect x="250" y="565" width="82" height="25" fill="#bababa" stroke="none" stroke-width="0" opacity="1"/>
		<rect x="250" y="590" width="82" height="127" fill="#e0e0e0" stroke="none" stroke-width="0" opacity="1"/>
		<rect x="250" y="565" width="82" height="152" fill="none" stroke="#878787" stroke-width="2" opacity="1"/>
		<line x1="250" y1="590" x2="332" y2="590" stroke="#878787" stroke-width="1"/>
	</g>
	<text x="268" y="582.75" fill="#000000" font-family="Verdana" font-size="12">SORTIE</text>
	<text x="255" y="607.8" fill="#000000" font-family="Verdana" font-size="12">idSortie</text>
	<line x1="255" y1="610" x2="303" y2="610" stroke="#000000" stroke-width="1"/>
	<text x="255" y="624.8" fill="#000000" font-family="Verdana" font-size="12">dateSortie</text>
	<text x="255" y="641.8" fill="#000000" font-family="Verdana" font-size="12">dureeSortie</text>
	<text x="255" y="658.8" fill="#000000" font-family="Verdana" font-size="12">lieu</text>
	<text x="255" y="675.8" fill="#000000" font-family="Verdana" font-size="12">type</text>
	<text x="255" y="692.8" fill="#000000" font-family="Verdana" font-size="12">tenue</text>
	<text x="255" y="709.8" fill="#000000" font-family="Verdana" font-size="12">idImg</text>
</g>

<!-- Entity TYPE_INSTRUMENT -->
<g>
	<g>
		<rect x="674" y="607" width="134" height="25" fill="#bababa" stroke="none" stroke-width="0" opacity="1"/>
		<rect x="674" y="632" width="134" height="43" fill="#e0e0e0" stroke="none" stroke-width="0" opacity="1"/>
		<rect x="674" y="607" width="134" height="68" fill="none" stroke="#878787" stroke-width="2" opacity="1"/>
		<line x1="674" y1="632" x2="808" y2="632" stroke="#878787" stroke-width="1"/>
	</g>
	<text x="682" y="624.75" fill="#000000" font-family="Verdana" font-size="12">TYPE_INSTRUMENT</text>
	<text x="679" y="649.8" fill="#000000" font-family="Verdana" font-size="12">idTypeInstrument</text>
	<line x1="679" y1="652" x2="787" y2="652" stroke="#000000" stroke-width="1"/>
	<text x="679" y="666.8" fill="#000000" font-family="Verdana" font-size="12">nomTypeInstrument</text>
</g>

<!-- Entity IMAGE -->
<g>
	<g>
		<rect x="260" y="767" width="62" height="25" fill="#bababa" stroke="none" stroke-width="0" opacity="1"/>
		<rect x="260" y="792" width="62" height="77" fill="#e0e0e0" stroke="none" stroke-width="0" opacity="1"/>
		<rect x="260" y="767" width="62" height="102" fill="none" stroke="#878787" stroke-width="2" opacity="1"/>
		<line x1="260" y1="792" x2="322" y2="792" stroke="#878787" stroke-width="1"/>
	</g>
	<text x="271" y="784.75" fill="#000000" font-family="Verdana" font-size="12">IMAGE</text>
	<text x="265" y="809.8" fill="#000000" font-family="Verdana" font-size="12">idImg</text>
	<line x1="265" y1="812" x2="301" y2="812" stroke="#000000" stroke-width="1"/>
	<text x="265" y="826.8" fill="#000000" font-family="Verdana" font-size="12">alt</text>
	<text x="265" y="843.8" fill="#000000" font-family="Verdana" font-size="12">nomImg</text>
	<text x="265" y="860.8" fill="#000000" font-family="Verdana" font-size="12">img</text>
</g>
</svg>