<?xml version="1.0" encoding="utf-8"?>
<!-- Generated by Mocodo 4.2.1 -->
<svg width="848" height="819" viewBox="0 0 848 819" xmlns="http://www.w3.org/2000/svg">
<rect x="0" y="0" width="848" height="819" fill="#ffffff" stroke="none" stroke-width="0"/>

<!-- Association RELIER1 -->
<g>
	<line x1="302" y1="68" x2="58" y2="68" stroke="#d6604d" stroke-width="2"/>
	<line x1="58" y1="329" x2="58" y2="68" stroke="#d6604d" stroke-width="2"/>
	<g>
		<path d="M74 43 a14 14 90 0 1 14 14 V68 h-60 V57 a14 14 90 0 1 14 -14" fill="#f4a582" stroke="#f4a582" stroke-width="0"/>
		<path d="M88 68 v11 a14 14 90 0 1 -14 14 H42 a14 14 90 0 1 -14 -14 V68 H60" fill="#fddbc7" stroke="#fddbc7" stroke-width="0"/>
		<rect x="28" y="43" width="60" height="50" fill="none" rx="14" stroke="#d6604d" stroke-width="2"/>
		<line x1="28" y1="68" x2="88" y2="68" stroke="#d6604d" stroke-width="1"/>
		<text x="36" y="60.75" fill="#000000" font-family="Verdana" font-size="12">RELIER</text>
	</g>
	<text x="221" y="85" fill="#4d4d4d" font-family="Verdana" font-size="12">0,N</text>
	<text x="63" y="253" fill="#4d4d4d" font-family="Verdana" font-size="12">1,1</text>
</g>

<!-- Association PRESENCE_REPETITION -->
<g>
	<line x1="604" y1="329" x2="471" y2="68" stroke="#d6604d" stroke-width="2"/>
	<line x1="302" y1="68" x2="471" y2="68" stroke="#d6604d" stroke-width="2"/>
	<g>
		<path d="M538 43 a14 14 90 0 1 14 14 V68 h-162 V57 a14 14 90 0 1 14 -14" fill="#f4a582" stroke="#f4a582" stroke-width="0"/>
		<path d="M552 68 v11 a14 14 90 0 1 -14 14 H404 a14 14 90 0 1 -14 -14 V68 H162" fill="#fddbc7" stroke="#fddbc7" stroke-width="0"/>
		<rect x="390" y="43" width="162" height="50" fill="none" rx="14" stroke="#d6604d" stroke-width="2"/>
		<line x1="390" y1="68" x2="552" y2="68" stroke="#d6604d" stroke-width="1"/>
		<text x="398" y="60.75" fill="#000000" font-family="Verdana" font-size="12">PRESENCE_REPETITION</text>
	</g>
	<text x="534" y="261.56" fill="#4d4d4d" font-family="Verdana" font-size="12">O,N</text>
	<text x="361" y="85" fill="#4d4d4d" font-family="Verdana" font-size="12">O,N</text>
</g>

<!-- Association PARTICIPATION_REPETITION -->
<g>
	<line x1="302" y1="68" x2="302" y2="194" stroke="#d6604d" stroke-width="2"/>
	<line x1="604" y1="329" x2="302" y2="194" stroke="#d6604d" stroke-width="2"/>
	<g>
		<path d="M385 152 a14 14 90 0 1 14 14 V177 h-194 V166 a14 14 90 0 1 14 -14" fill="#f4a582" stroke="#f4a582" stroke-width="0"/>
		<path d="M399 177 v45 a14 14 90 0 1 -14 14 H219 a14 14 90 0 1 -14 -14 V177 H194" fill="#fddbc7" stroke="#fddbc7" stroke-width="0"/>
		<rect x="205" y="152" width="194" height="84" fill="none" rx="14" stroke="#d6604d" stroke-width="2"/>
		<line x1="205" y1="177" x2="399" y2="177" stroke="#d6604d" stroke-width="1"/>
		<text x="213" y="169.75" fill="#000000" font-family="Verdana" font-size="12">PARTICIPATION_REPETITION</text>
		<text x="212" y="194.8" fill="#000000" font-family="Verdana" font-size="12">idTypeInstrument</text>
		<text x="212" y="211.8" fill="#000000" font-family="Verdana" font-size="12">dataReponse</text>
		<text x="212" y="228.8" fill="#000000" font-family="Verdana" font-size="12">presence</text>
	</g>
	<text x="307" y="144" fill="#4d4d4d" font-family="Verdana" font-size="12">0,N</text>
	<text x="536" y="324.17" fill="#4d4d4d" font-family="Verdana" font-size="12">0,N</text>
</g>

<!-- Association TUTORER -->
<g>
	<path d="M604 329 C561.33 244 561.33 199 604 194" fill="none" stroke="#d6604d" stroke-width="2"/>
	<path d="M604 329 C649.33 244 649.33 199 604 194" fill="none" stroke="#d6604d" stroke-width="2"/>
	<g>
		<path d="M626 169 a14 14 90 0 1 14 14 V194 h-72 V183 a14 14 90 0 1 14 -14" fill="#f4a582" stroke="#f4a582" stroke-width="0"/>
		<path d="M640 194 v11 a14 14 90 0 1 -14 14 H582 a14 14 90 0 1 -14 -14 V194 H72" fill="#fddbc7" stroke="#fddbc7" stroke-width="0"/>
		<rect x="568" y="169" width="72" height="50" fill="none" rx="14" stroke="#d6604d" stroke-width="2"/>
		<line x1="568" y1="194" x2="640" y2="194" stroke="#d6604d" stroke-width="1"/>
		<text x="575" y="186.75" fill="#000000" font-family="Verdana" font-size="12">TUTORER</text>
	</g>
	<text x="578" y="236" fill="#4d4d4d" font-family="Verdana" font-size="12">1,N</text>
	<text x="608" y="236" fill="#4d4d4d" font-family="Verdana" font-size="12">O,N</text>
</g>

<!-- Association RELIER2 -->
<g>
	<line x1="302" y1="329" x2="171" y2="329" stroke="#d6604d" stroke-width="2"/>
	<line x1="58" y1="329" x2="171" y2="329" stroke="#d6604d" stroke-width="2"/>
	<g>
		<path d="M187 304 a14 14 90 0 1 14 14 V329 h-60 V318 a14 14 90 0 1 14 -14" fill="#f4a582" stroke="#f4a582" stroke-width="0"/>
		<path d="M201 329 v11 a14 14 90 0 1 -14 14 H155 a14 14 90 0 1 -14 -14 V329 H60" fill="#fddbc7" stroke="#fddbc7" stroke-width="0"/>
		<rect x="141" y="304" width="60" height="50" fill="none" rx="14" stroke="#d6604d" stroke-width="2"/>
		<line x1="141" y1="329" x2="201" y2="329" stroke="#d6604d" stroke-width="1"/>
		<text x="149" y="321.75" fill="#000000" font-family="Verdana" font-size="12">RELIER</text>
	</g>
	<text x="219" y="346" fill="#4d4d4d" font-family="Verdana" font-size="12">0,N</text>
	<text x="112" y="346" fill="#4d4d4d" font-family="Verdana" font-size="12">1,1</text>
</g>

<!-- Association REPONDU -->
<g>
	<line x1="302" y1="329" x2="471" y2="329" stroke="#d6604d" stroke-width="2"/>
	<line x1="604" y1="329" x2="471" y2="329" stroke="#d6604d" stroke-width="2"/>
	<g>
		<path d="M515 287 a14 14 90 0 1 14 14 V312 h-116 V301 a14 14 90 0 1 14 -14" fill="#f4a582" stroke="#f4a582" stroke-width="0"/>
		<path d="M529 312 v45 a14 14 90 0 1 -14 14 H427 a14 14 90 0 1 -14 -14 V312 H116" fill="#fddbc7" stroke="#fddbc7" stroke-width="0"/>
		<rect x="413" y="287" width="116" height="84" fill="none" rx="14" stroke="#d6604d" stroke-width="2"/>
		<line x1="413" y1="312" x2="529" y2="312" stroke="#d6604d" stroke-width="1"/>
		<text x="441" y="304.75" fill="#000000" font-family="Verdana" font-size="12">REPONDU</text>
		<text x="420" y="329.8" fill="#000000" font-family="Verdana" font-size="12">reponseQuestion</text>
		<text x="420" y="346.8" fill="#000000" font-family="Verdana" font-size="12">reponseSpeciale</text>
		<text x="420" y="363.8" fill="#000000" font-family="Verdana" font-size="12">dateReponse</text>
	</g>
	<text x="363" y="346" fill="#4d4d4d" font-family="Verdana" font-size="12">0,N</text>
	<text x="536" y="346" fill="#4d4d4d" font-family="Verdana" font-size="12">0,N</text>
</g>

<!-- Association DISPONIBILITE -->
<g>
	<line x1="772" y1="68" x2="772" y2="329" stroke="#d6604d" stroke-width="2"/>
	<line x1="604" y1="329" x2="772" y2="329" stroke="#d6604d" stroke-width="2"/>
	<g>
		<path d="M812 304 a14 14 90 0 1 14 14 V329 h-108 V318 a14 14 90 0 1 14 -14" fill="#f4a582" stroke="#f4a582" stroke-width="0"/>
		<path d="M826 329 v11 a14 14 90 0 1 -14 14 H732 a14 14 90 0 1 -14 -14 V329 H108" fill="#fddbc7" stroke="#fddbc7" stroke-width="0"/>
		<rect x="718" y="304" width="108" height="50" fill="none" rx="14" stroke="#d6604d" stroke-width="2"/>
		<line x1="718" y1="329" x2="826" y2="329" stroke="#d6604d" stroke-width="1"/>
		<text x="725" y="321.75" fill="#000000" font-family="Verdana" font-size="12">DISPONIBILITE</text>
	</g>
	<text x="777" y="110" fill="#4d4d4d" font-family="Verdana" font-size="12">0,N</text>
	<text x="650" y="321" fill="#4d4d4d" font-family="Verdana" font-size="12">0,N</text>
</g>

<!-- Association PARTICIPATION_SORTIE -->
<g>
	<line x1="302" y1="582" x2="471" y2="481" stroke="#d6604d" stroke-width="2"/>
	<line x1="604" y1="329" x2="471" y2="481" stroke="#d6604d" stroke-width="2"/>
	<g>
		<path d="M540 439 a14 14 90 0 1 14 14 V464 h-166 V453 a14 14 90 0 1 14 -14" fill="#f4a582" stroke="#f4a582" stroke-width="0"/>
		<path d="M554 464 v45 a14 14 90 0 1 -14 14 H402 a14 14 90 0 1 -14 -14 V464 H166" fill="#fddbc7" stroke="#fddbc7" stroke-width="0"/>
		<rect x="388" y="439" width="166" height="84" fill="none" rx="14" stroke="#d6604d" stroke-width="2"/>
		<line x1="388" y1="464" x2="554" y2="464" stroke="#d6604d" stroke-width="1"/>
		<text x="396" y="456.75" fill="#000000" font-family="Verdana" font-size="12">PARTICIPATION_SORTIE</text>
		<text x="395" y="481.8" fill="#000000" font-family="Verdana" font-size="12">idTypeInstrument</text>
		<text x="395" y="498.8" fill="#000000" font-family="Verdana" font-size="12">dataReponse</text>
		<text x="395" y="515.8" fill="#000000" font-family="Verdana" font-size="12">presence</text>
	</g>
	<text x="348" y="569.87" fill="#4d4d4d" font-family="Verdana" font-size="12">0,N</text>
	<text x="536" y="374.26" fill="#4d4d4d" font-family="Verdana" font-size="12">0,N</text>
</g>

<!-- Association JOUER -->
<g>
	<line x1="604" y1="329" x2="772" y2="481" stroke="#d6604d" stroke-width="2"/>
	<line x1="772" y1="582" x2="772" y2="481" stroke="#d6604d" stroke-width="2"/>
	<g>
		<path d="M786 456 a14 14 90 0 1 14 14 V481 h-56 V470 a14 14 90 0 1 14 -14" fill="#f4a582" stroke="#f4a582" stroke-width="0"/>
		<path d="M800 481 v11 a14 14 90 0 1 -14 14 H758 a14 14 90 0 1 -14 -14 V481 H56" fill="#fddbc7" stroke="#fddbc7" stroke-width="0"/>
		<rect x="744" y="456" width="56" height="50" fill="none" rx="14" stroke="#d6604d" stroke-width="2"/>
		<line x1="744" y1="481" x2="800" y2="481" stroke="#d6604d" stroke-width="1"/>
		<text x="752" y="473.75" fill="#000000" font-family="Verdana" font-size="12">JOUER</text>
	</g>
	<text x="650" y="364.67" fill="#4d4d4d" font-family="Verdana" font-size="12">O,N</text>
	<text x="777" y="540" fill="#4d4d4d" font-family="Verdana" font-size="12">O,N</text>
</g>

<!-- Association RELIER -->
<g>
	<line x1="302" y1="582" x2="58" y2="582" stroke="#d6604d" stroke-width="2"/>
	<line x1="58" y1="329" x2="58" y2="582" stroke="#d6604d" stroke-width="2"/>
	<g>
		<path d="M74 557 a14 14 90 0 1 14 14 V582 h-60 V571 a14 14 90 0 1 14 -14" fill="#f4a582" stroke="#f4a582" stroke-width="0"/>
		<path d="M88 582 v11 a14 14 90 0 1 -14 14 H42 a14 14 90 0 1 -14 -14 V582 H60" fill="#fddbc7" stroke="#fddbc7" stroke-width="0"/>
		<rect x="28" y="557" width="60" height="50" fill="none" rx="14" stroke="#d6604d" stroke-width="2"/>
		<line x1="28" y1="582" x2="88" y2="582" stroke="#d6604d" stroke-width="1"/>
		<text x="36" y="574.75" fill="#000000" font-family="Verdana" font-size="12">RELIER</text>
	</g>
	<text x="234" y="599" fill="#4d4d4d" font-family="Verdana" font-size="12">0,N</text>
	<text x="63" y="414" fill="#4d4d4d" font-family="Verdana" font-size="12">1,1</text>
</g>

<!-- Association PRESENCE_SORTIE -->
<g>
	<line x1="604" y1="329" x2="604" y2="582" stroke="#d6604d" stroke-width="2"/>
	<line x1="302" y1="582" x2="604" y2="582" stroke="#d6604d" stroke-width="2"/>
	<g>
		<path d="M657 557 a14 14 90 0 1 14 14 V582 h-134 V571 a14 14 90 0 1 14 -14" fill="#f4a582" stroke="#f4a582" stroke-width="0"/>
		<path d="M671 582 v11 a14 14 90 0 1 -14 14 H551 a14 14 90 0 1 -14 -14 V582 H134" fill="#fddbc7" stroke="#fddbc7" stroke-width="0"/>
		<rect x="537" y="557" width="134" height="50" fill="none" rx="14" stroke="#d6604d" stroke-width="2"/>
		<line x1="537" y1="582" x2="671" y2="582" stroke="#d6604d" stroke-width="1"/>
		<text x="545" y="574.75" fill="#000000" font-family="Verdana" font-size="12">PRESENCE_SORTIE</text>
	</g>
	<text x="609" y="431" fill="#4d4d4d" font-family="Verdana" font-size="12">O,N</text>
	<text x="348" y="599" fill="#4d4d4d" font-family="Verdana" font-size="12">O,N</text>
</g>

<!-- Association CORRESPONDRE -->
<g>
	<line x1="302" y1="759" x2="471" y2="683" stroke="#d6604d" stroke-width="2"/>
	<line x1="302" y1="582" x2="471" y2="683" stroke="#d6604d" stroke-width="2"/>
	<g>
		<path d="M515 658 a14 14 90 0 1 14 14 V683 h-116 V672 a14 14 90 0 1 14 -14" fill="#f4a582" stroke="#f4a582" stroke-width="0"/>
		<path d="M529 683 v11 a14 14 90 0 1 -14 14 H427 a14 14 90 0 1 -14 -14 V683 H116" fill="#fddbc7" stroke="#fddbc7" stroke-width="0"/>
		<rect x="413" y="658" width="116" height="50" fill="none" rx="14" stroke="#d6604d" stroke-width="2"/>
		<line x1="413" y1="683" x2="529" y2="683" stroke="#d6604d" stroke-width="1"/>
		<text x="420" y="675.75" fill="#000000" font-family="Verdana" font-size="12">CORRESPONDRE</text>
	</g>
	<text x="338" y="758.54" fill="#4d4d4d" font-family="Verdana" font-size="12">O,N</text>
	<text x="348" y="603.13" fill="#4d4d4d" font-family="Verdana" font-size="12">O,N</text>
</g>

<!-- Entity REPETITION -->
<g>
	<g>
		<rect x="248" y="9" width="108" height="25" fill="#bababa" stroke="none" stroke-width="0" opacity="1"/>
		<rect x="248" y="34" width="108" height="93" fill="#e0e0e0" stroke="none" stroke-width="0" opacity="1"/>
		<rect x="248" y="9" width="108" height="118" fill="none" stroke="#878787" stroke-width="2" opacity="1"/>
		<line x1="248" y1="34" x2="356" y2="34" stroke="#878787" stroke-width="1"/>
	</g>
	<text x="265" y="26.75" fill="#000000" font-family="Verdana" font-size="12">REPETITION</text>
	<text x="253" y="51.8" fill="#000000" font-family="Verdana" font-size="12">idRepetition</text>
	<line x1="253" y1="54" x2="326" y2="54" stroke="#000000" stroke-width="1"/>
	<text x="253" y="68.8" fill="#000000" font-family="Verdana" font-size="12">dateRepetition</text>
	<text x="253" y="85.8" fill="#000000" font-family="Verdana" font-size="12">dureeRepetition</text>
	<text x="253" y="102.8" fill="#000000" font-family="Verdana" font-size="12">lieu</text>
	<text x="253" y="119.8" fill="#000000" font-family="Verdana" font-size="12">tenue</text>
</g>

<!-- Entity DEMI_JOURNNE -->
<g>
	<g>
		<rect x="718" y="43" width="108" height="25" fill="#bababa" stroke="none" stroke-width="0" opacity="1"/>
		<rect x="718" y="68" width="108" height="25" fill="#e0e0e0" stroke="none" stroke-width="0" opacity="1"/>
		<rect x="718" y="43" width="108" height="50" fill="none" stroke="#878787" stroke-width="2" opacity="1"/>
		<line x1="718" y1="68" x2="826" y2="68" stroke="#878787" stroke-width="1"/>
	</g>
	<text x="723" y="60.75" fill="#000000" font-family="Verdana" font-size="12">DEMI_JOURNNE</text>
	<text x="723" y="85.8" fill="#000000" font-family="Verdana" font-size="12">date</text>
	<line x1="723" y1="88" x2="751" y2="88" stroke="#000000" stroke-width="1"/>
</g>

<!-- Entity SONDAGE -->
<g>
	<g>
		<rect x="9" y="261" width="98" height="25" fill="#bababa" stroke="none" stroke-width="0" opacity="1"/>
		<rect x="9" y="286" width="98" height="111" fill="#e0e0e0" stroke="none" stroke-width="0" opacity="1"/>
		<rect x="9" y="261" width="98" height="136" fill="none" stroke="#878787" stroke-width="2" opacity="1"/>
		<line x1="9" y1="286" x2="107" y2="286" stroke="#878787" stroke-width="1"/>
	</g>
	<text x="27" y="278.75" fill="#000000" font-family="Verdana" font-size="12">SONDAGE</text>
	<text x="14" y="303.8" fill="#000000" font-family="Verdana" font-size="12">idSondage</text>
	<line x1="14" y1="306" x2="78" y2="306" stroke="#000000" stroke-width="1"/>
	<text x="14" y="320.8" fill="#000000" font-family="Verdana" font-size="12">idSortie</text>
	<text x="14" y="337.8" fill="#000000" font-family="Verdana" font-size="12">idRepetition</text>
	<text x="14" y="354.8" fill="#000000" font-family="Verdana" font-size="12">dateSondage</text>
	<text x="14" y="371.8" fill="#000000" font-family="Verdana" font-size="12">dureeSondage</text>
	<text x="14" y="388.8" fill="#000000" font-family="Verdana" font-size="12">message</text>
</g>

<!-- Entity QUESTION -->
<g>
	<g>
		<rect x="246" y="278" width="112" height="25" fill="#bababa" stroke="none" stroke-width="0" opacity="1"/>
		<rect x="246" y="303" width="112" height="77" fill="#e0e0e0" stroke="none" stroke-width="0" opacity="1"/>
		<rect x="246" y="278" width="112" height="102" fill="none" stroke="#878787" stroke-width="2" opacity="1"/>
		<line x1="246" y1="303" x2="358" y2="303" stroke="#878787" stroke-width="1"/>
	</g>
	<text x="269" y="295.75" fill="#000000" font-family="Verdana" font-size="12">QUESTION</text>
	<text x="251" y="320.8" fill="#000000" font-family="Verdana" font-size="12">idQuestion</text>
	<line x1="251" y1="323" x2="316" y2="323" stroke="#000000" stroke-width="1"/>
	<text x="251" y="337.8" fill="#000000" font-family="Verdana" font-size="12">intitule</text>
	<text x="251" y="354.8" fill="#000000" font-family="Verdana" font-size="12">reponseQuestion</text>
	<text x="251" y="371.8" fill="#000000" font-family="Verdana" font-size="12">datefin</text>
</g>

<!-- Entity MUSICIEN -->
<g>
	<g>
		<rect x="563" y="244" width="82" height="25" fill="#bababa" stroke="none" stroke-width="0" opacity="1"/>
		<rect x="563" y="269" width="82" height="145" fill="#e0e0e0" stroke="none" stroke-width="0" opacity="1"/>
		<rect x="563" y="244" width="82" height="170" fill="none" stroke="#878787" stroke-width="2" opacity="1"/>
		<line x1="563" y1="269" x2="645" y2="269" stroke="#878787" stroke-width="1"/>
	</g>
	<text x="573" y="261.75" fill="#000000" font-family="Verdana" font-size="12">MUSICIEN</text>
	<text x="568" y="286.8" fill="#000000" font-family="Verdana" font-size="12">idMusicien</text>
	<line x1="568" y1="289" x2="631" y2="289" stroke="#000000" stroke-width="1"/>
	<text x="568" y="303.8" fill="#000000" font-family="Verdana" font-size="12">nom</text>
	<text x="568" y="320.8" fill="#000000" font-family="Verdana" font-size="12">prenom</text>
	<text x="568" y="337.8" fill="#000000" font-family="Verdana" font-size="12">password</text>
	<text x="568" y="354.8" fill="#000000" font-family="Verdana" font-size="12">age</text>
	<text x="568" y="371.8" fill="#000000" font-family="Verdana" font-size="12">adresseMail</text>
	<text x="568" y="388.8" fill="#000000" font-family="Verdana" font-size="12">telephone</text>
	<text x="568" y="405.8" fill="#000000" font-family="Verdana" font-size="12">admin</text>
</g>

<!-- Entity SORTIE -->
<g>
	<g>
		<rect x="261" y="506" width="82" height="25" fill="#bababa" stroke="none" stroke-width="0" opacity="1"/>
		<rect x="261" y="531" width="82" height="127" fill="#e0e0e0" stroke="none" stroke-width="0" opacity="1"/>
		<rect x="261" y="506" width="82" height="152" fill="none" stroke="#878787" stroke-width="2" opacity="1"/>
		<line x1="261" y1="531" x2="343" y2="531" stroke="#878787" stroke-width="1"/>
	</g>
	<text x="279" y="523.75" fill="#000000" font-family="Verdana" font-size="12">SORTIE</text>
	<text x="266" y="548.8" fill="#000000" font-family="Verdana" font-size="12">idSortie</text>
	<line x1="266" y1="551" x2="314" y2="551" stroke="#000000" stroke-width="1"/>
	<text x="266" y="565.8" fill="#000000" font-family="Verdana" font-size="12">dateSortie</text>
	<text x="266" y="582.8" fill="#000000" font-family="Verdana" font-size="12">dureeSortie</text>
	<text x="266" y="599.8" fill="#000000" font-family="Verdana" font-size="12">lieu</text>
	<text x="266" y="616.8" fill="#000000" font-family="Verdana" font-size="12">type</text>
	<text x="266" y="633.8" fill="#000000" font-family="Verdana" font-size="12">tenue</text>
	<text x="266" y="650.8" fill="#000000" font-family="Verdana" font-size="12">idImg</text>
</g>

<!-- Entity TYPE_INSTRUMENT -->
<g>
	<g>
		<rect x="705" y="548" width="134" height="25" fill="#bababa" stroke="none" stroke-width="0" opacity="1"/>
		<rect x="705" y="573" width="134" height="43" fill="#e0e0e0" stroke="none" stroke-width="0" opacity="1"/>
		<rect x="705" y="548" width="134" height="68" fill="none" stroke="#878787" stroke-width="2" opacity="1"/>
		<line x1="705" y1="573" x2="839" y2="573" stroke="#878787" stroke-width="1"/>
	</g>
	<text x="713" y="565.75" fill="#000000" font-family="Verdana" font-size="12">TYPE_INSTRUMENT</text>
	<text x="710" y="590.8" fill="#000000" font-family="Verdana" font-size="12">idTypeInstrument</text>
	<line x1="710" y1="593" x2="818" y2="593" stroke="#000000" stroke-width="1"/>
	<text x="710" y="607.8" fill="#000000" font-family="Verdana" font-size="12">nomTypeInstrument</text>
</g>

<!-- Entity IMAGE -->
<g>
	<g>
		<rect x="271" y="708" width="62" height="25" fill="#bababa" stroke="none" stroke-width="0" opacity="1"/>
		<rect x="271" y="733" width="62" height="77" fill="#e0e0e0" stroke="none" stroke-width="0" opacity="1"/>
		<rect x="271" y="708" width="62" height="102" fill="none" stroke="#878787" stroke-width="2" opacity="1"/>
		<line x1="271" y1="733" x2="333" y2="733" stroke="#878787" stroke-width="1"/>
	</g>
	<text x="282" y="725.75" fill="#000000" font-family="Verdana" font-size="12">IMAGE</text>
	<text x="276" y="750.8" fill="#000000" font-family="Verdana" font-size="12">idImg</text>
	<line x1="276" y1="753" x2="312" y2="753" stroke="#000000" stroke-width="1"/>
	<text x="276" y="767.8" fill="#000000" font-family="Verdana" font-size="12">alt</text>
	<text x="276" y="784.8" fill="#000000" font-family="Verdana" font-size="12">nomImg</text>
	<text x="276" y="801.8" fill="#000000" font-family="Verdana" font-size="12">img</text>
</g>
</svg>