<?xml version="1.0" encoding="utf-8"?>
<!-- Generated by Mocodo 4.0.10 -->
<svg width="635" height="322" viewBox="0 0 635 322" xmlns="http://www.w3.org/2000/svg">
<rect x="0" y="0" width="635" height="322" fill="#f7f7f7" stroke="none" stroke-width="0"/>

<!-- Association PARTICIPER2 -->
<g>
	<line x1="203" y1="77" x2="333" y2="77" stroke="#8073ac" stroke-width="2"/>
	<line x1="333" y1="220" x2="333" y2="77" stroke="#8073ac" stroke-width="2"/>
	<g>
		<path d="M363 52 a14 14 90 0 1 14 14 V77 h-88 V66 a14 14 90 0 1 14 -14" fill="#b2abd2" stroke="#b2abd2" stroke-width="0"/>
		<path d="M377 77 v11 a14 14 90 0 1 -14 14 H303 a14 14 90 0 1 -14 -14 V77 H88" fill="#d8daeb" stroke="#d8daeb" stroke-width="0"/>
		<rect x="289" y="52" width="88" height="50" fill="none" rx="14" stroke="#8073ac" stroke-width="2"/>
		<line x1="289" y1="77" x2="377" y2="77" stroke="#8073ac" stroke-width="1"/>
		<text x="296" y="69.75" fill="#000000" font-family="Verdana" font-size="12">PARTICIPER</text>
		<text x="296" y="94.8" fill="#000000" font-family="Verdana" font-size="12">materiel</text>
	</g>
	<text x="262" y="94" fill="#b35806" font-family="Verdana" font-size="12">0,N</text>
	<text x="338" y="119" fill="#b35806" font-family="Verdana" font-size="12">0,N</text>
</g>

<!-- Association RELIER -->
<g>
	<line x1="452" y1="77" x2="577" y2="77" stroke="#8073ac" stroke-width="2"/>
	<line x1="577" y1="220" x2="577" y2="77" stroke="#8073ac" stroke-width="2"/>
	<g>
		<path d="M593 52 a14 14 90 0 1 14 14 V77 h-60 V66 a14 14 90 0 1 14 -14" fill="#b2abd2" stroke="#b2abd2" stroke-width="0"/>
		<path d="M607 77 v11 a14 14 90 0 1 -14 14 H561 a14 14 90 0 1 -14 -14 V77 H60" fill="#d8daeb" stroke="#d8daeb" stroke-width="0"/>
		<rect x="547" y="52" width="60" height="50" fill="none" rx="14" stroke="#8073ac" stroke-width="2"/>
		<line x1="547" y1="77" x2="607" y2="77" stroke="#8073ac" stroke-width="1"/>
		<text x="555" y="69.75" fill="#000000" font-family="Verdana" font-size="12">RELIER</text>
	</g>
	<text x="498" y="94" fill="#b35806" font-family="Verdana" font-size="12">0,N</text>
	<text x="582" y="170" fill="#b35806" font-family="Verdana" font-size="12">1,1</text>
</g>

<!-- Association DISPONIBILITE -->
<g>
	<line x1="63" y1="220" x2="203" y2="220" stroke="#8073ac" stroke-width="2"/>
	<line x1="333" y1="220" x2="203" y2="220" stroke="#8073ac" stroke-width="2"/>
	<g>
		<path d="M243 195 a14 14 90 0 1 14 14 V220 h-108 V209 a14 14 90 0 1 14 -14" fill="#b2abd2" stroke="#b2abd2" stroke-width="0"/>
		<path d="M257 220 v11 a14 14 90 0 1 -14 14 H163 a14 14 90 0 1 -14 -14 V220 H108" fill="#d8daeb" stroke="#d8daeb" stroke-width="0"/>
		<rect x="149" y="195" width="108" height="50" fill="none" rx="14" stroke="#8073ac" stroke-width="2"/>
		<line x1="149" y1="220" x2="257" y2="220" stroke="#8073ac" stroke-width="1"/>
		<text x="156" y="212.75" fill="#000000" font-family="Verdana" font-size="12">DISPONIBILITE</text>
	</g>
	<text x="122" y="237" fill="#b35806" font-family="Verdana" font-size="12">0,N</text>
	<text x="263" y="237" fill="#b35806" font-family="Verdana" font-size="12">0,N</text>
</g>

<!-- Association PARTICIPER1 -->
<g>
	<line x1="452" y1="77" x2="452" y2="220" stroke="#8073ac" stroke-width="2"/>
	<line x1="333" y1="220" x2="452" y2="220" stroke="#8073ac" stroke-width="2"/>
	<g>
		<path d="M482 195 a14 14 90 0 1 14 14 V220 h-88 V209 a14 14 90 0 1 14 -14" fill="#b2abd2" stroke="#b2abd2" stroke-width="0"/>
		<path d="M496 220 v11 a14 14 90 0 1 -14 14 H422 a14 14 90 0 1 -14 -14 V220 H88" fill="#d8daeb" stroke="#d8daeb" stroke-width="0"/>
		<rect x="408" y="195" width="88" height="50" fill="none" rx="14" stroke="#8073ac" stroke-width="2"/>
		<line x1="408" y1="220" x2="496" y2="220" stroke="#8073ac" stroke-width="1"/>
		<text x="415" y="212.75" fill="#000000" font-family="Verdana" font-size="12">PARTICIPER</text>
		<text x="415" y="237.8" fill="#000000" font-family="Verdana" font-size="12">materiel</text>
	</g>
	<text x="457" y="162" fill="#b35806" font-family="Verdana" font-size="12">0,N</text>
	<text x="381" y="237" fill="#b35806" font-family="Verdana" font-size="12">0,N</text>
</g>

<!-- Entity REPETITION -->
<g>
	<g>
		<rect x="149" y="35" width="108" height="25" fill="#fdb863" stroke="none" stroke-width="0" opacity="1"/>
		<rect x="149" y="60" width="108" height="59" fill="#fee0b6" stroke="none" stroke-width="0" opacity="1"/>
		<rect x="149" y="35" width="108" height="84" fill="none" stroke="#e08214" stroke-width="2" opacity="1"/>
		<line x1="149" y1="60" x2="257" y2="60" stroke="#e08214" stroke-width="1"/>
	</g>
	<text x="166" y="52.75" fill="#000000" font-family="Verdana" font-size="12">REPETITION</text>
	<text x="154" y="77.8" fill="#000000" font-family="Verdana" font-size="12">idRepetition</text>
	<line x1="154" y1="80" x2="227" y2="80" stroke="#000000" stroke-width="1"/>
	<text x="154" y="94.8" fill="#000000" font-family="Verdana" font-size="12">dateRepetition</text>
	<text x="154" y="111.8" fill="#000000" font-family="Verdana" font-size="12">dureeRepetition</text>
</g>

<!-- Entity SORTIE -->
<g>
	<g>
		<rect x="411" y="9" width="82" height="25" fill="#fdb863" stroke="none" stroke-width="0" opacity="1"/>
		<rect x="411" y="34" width="82" height="111" fill="#fee0b6" stroke="none" stroke-width="0" opacity="1"/>
		<rect x="411" y="9" width="82" height="136" fill="none" stroke="#e08214" stroke-width="2" opacity="1"/>
		<line x1="411" y1="34" x2="493" y2="34" stroke="#e08214" stroke-width="1"/>
	</g>
	<text x="429" y="26.75" fill="#000000" font-family="Verdana" font-size="12">SORTIE</text>
	<text x="416" y="51.8" fill="#000000" font-family="Verdana" font-size="12">idSortie</text>
	<line x1="416" y1="54" x2="464" y2="54" stroke="#000000" stroke-width="1"/>
	<text x="416" y="68.8" fill="#000000" font-family="Verdana" font-size="12">dateSortie</text>
	<text x="416" y="85.8" fill="#000000" font-family="Verdana" font-size="12">dureeSortie</text>
	<text x="416" y="102.8" fill="#000000" font-family="Verdana" font-size="12">lieu</text>
	<text x="416" y="119.8" fill="#000000" font-family="Verdana" font-size="12">type</text>
	<text x="416" y="136.8" fill="#000000" font-family="Verdana" font-size="12">tenue</text>
</g>

<!-- Entity DEMI_JOURNNE -->
<g>
	<g>
		<rect x="9" y="195" width="108" height="25" fill="#fdb863" stroke="none" stroke-width="0" opacity="1"/>
		<rect x="9" y="220" width="108" height="25" fill="#fee0b6" stroke="none" stroke-width="0" opacity="1"/>
		<rect x="9" y="195" width="108" height="50" fill="none" stroke="#e08214" stroke-width="2" opacity="1"/>
		<line x1="9" y1="220" x2="117" y2="220" stroke="#e08214" stroke-width="1"/>
	</g>
	<text x="14" y="212.75" fill="#000000" font-family="Verdana" font-size="12">DEMI_JOURNNE</text>
	<text x="14" y="237.8" fill="#000000" font-family="Verdana" font-size="12">date</text>
	<line x1="14" y1="240" x2="42" y2="240" stroke="#000000" stroke-width="1"/>
</g>

<!-- Entity MUSICIEN -->
<g>
	<g>
		<rect x="290" y="127" width="86" height="25" fill="#fdb863" stroke="none" stroke-width="0" opacity="1"/>
		<rect x="290" y="152" width="86" height="161" fill="#fee0b6" stroke="none" stroke-width="0" opacity="1"/>
		<rect x="290" y="127" width="86" height="186" fill="none" stroke="#e08214" stroke-width="2" opacity="1"/>
		<line x1="290" y1="152" x2="376" y2="152" stroke="#e08214" stroke-width="1"/>
	</g>
	<text x="302" y="144.75" fill="#000000" font-family="Verdana" font-size="12">MUSICIEN</text>
	<text x="295" y="169.8" fill="#000000" font-family="Verdana" font-size="12">idMusicien</text>
	<line x1="295" y1="172" x2="358" y2="172" stroke="#000000" stroke-width="1"/>
	<text x="295" y="186.8" fill="#000000" font-family="Verdana" font-size="12">nom</text>
	<text x="295" y="203.8" fill="#000000" font-family="Verdana" font-size="12">prenom</text>
	<text x="295" y="220.8" fill="#000000" font-family="Verdana" font-size="12">password</text>
	<text x="295" y="237.8" fill="#000000" font-family="Verdana" font-size="12">age</text>
	<text x="295" y="254.8" fill="#000000" font-family="Verdana" font-size="12">adresseMail</text>
	<text x="295" y="271.8" fill="#000000" font-family="Verdana" font-size="12">telephone</text>
	<text x="295" y="288.8" fill="#000000" font-family="Verdana" font-size="12">admin</text>
	<text x="295" y="305.8" fill="#000000" font-family="Verdana" font-size="12">imgMusicien</text>
</g>

<!-- Entity SONDAGE -->
<g>
	<g>
		<rect x="528" y="178" width="98" height="25" fill="#fdb863" stroke="none" stroke-width="0" opacity="1"/>
		<rect x="528" y="203" width="98" height="59" fill="#fee0b6" stroke="none" stroke-width="0" opacity="1"/>
		<rect x="528" y="178" width="98" height="84" fill="none" stroke="#e08214" stroke-width="2" opacity="1"/>
		<line x1="528" y1="203" x2="626" y2="203" stroke="#e08214" stroke-width="1"/>
	</g>
	<text x="546" y="195.75" fill="#000000" font-family="Verdana" font-size="12">SONDAGE</text>
	<text x="533" y="220.8" fill="#000000" font-family="Verdana" font-size="12">idSondage</text>
	<line x1="533" y1="223" x2="597" y2="223" stroke="#000000" stroke-width="1"/>
	<text x="533" y="237.8" fill="#000000" font-family="Verdana" font-size="12">dateSondage</text>
	<text x="533" y="254.8" fill="#000000" font-family="Verdana" font-size="12">dureeSondage</text>
</g>
</svg>