<?xml version="1.0" encoding="utf-8"?>
<!-- Generated by Mocodo 4.1.2 -->
<svg width="721" height="406" viewBox="0 0 721 406" xmlns="http://www.w3.org/2000/svg">
<rect x="0" y="0" width="721" height="406" fill="#f7f7f7" stroke="none" stroke-width="0"/>

<!-- Association RELIER1 -->
<g>
	<line x1="269" y1="51" x2="58" y2="51" stroke="#8073ac" stroke-width="2"/>
	<line x1="58" y1="194" x2="58" y2="51" stroke="#8073ac" stroke-width="2"/>
	<g>
		<path d="M74 26 a14 14 90 0 1 14 14 V51 h-60 V40 a14 14 90 0 1 14 -14" fill="#b2abd2" stroke="#b2abd2" stroke-width="0"/>
		<path d="M88 51 v11 a14 14 90 0 1 -14 14 H42 a14 14 90 0 1 -14 -14 V51 H60" fill="#d8daeb" stroke="#d8daeb" stroke-width="0"/>
		<rect x="28" y="26" width="60" height="50" fill="none" rx="14" stroke="#8073ac" stroke-width="2"/>
		<line x1="28" y1="51" x2="88" y2="51" stroke="#8073ac" stroke-width="1"/>
		<text x="36" y="43.75" fill="#000000" font-family="Verdana" font-size="12">RELIER</text>
	</g>
	<text x="188" y="68" fill="#b35806" font-family="Verdana" font-size="12">0,N</text>
	<text x="63" y="144" fill="#b35806" font-family="Verdana" font-size="12">1,1</text>
</g>

<!-- Association PARTICIPER2 -->
<g>
	<line x1="269" y1="51" x2="399" y2="51" stroke="#8073ac" stroke-width="2"/>
	<line x1="529" y1="194" x2="399" y2="51" stroke="#8073ac" stroke-width="2"/>
	<g>
		<path d="M429 26 a14 14 90 0 1 14 14 V51 h-88 V40 a14 14 90 0 1 14 -14" fill="#b2abd2" stroke="#b2abd2" stroke-width="0"/>
		<path d="M443 51 v11 a14 14 90 0 1 -14 14 H369 a14 14 90 0 1 -14 -14 V51 H88" fill="#d8daeb" stroke="#d8daeb" stroke-width="0"/>
		<rect x="355" y="26" width="88" height="50" fill="none" rx="14" stroke="#8073ac" stroke-width="2"/>
		<line x1="355" y1="51" x2="443" y2="51" stroke="#8073ac" stroke-width="1"/>
		<text x="362" y="43.75" fill="#000000" font-family="Verdana" font-size="12">PARTICIPER</text>
		<text x="362" y="68.8" fill="#000000" font-family="Verdana" font-size="12">materiel</text>
	</g>
	<text x="328" y="68" fill="#b35806" font-family="Verdana" font-size="12">0,N</text>
	<text x="459" y="157.1" fill="#b35806" font-family="Verdana" font-size="12">0,N</text>
</g>

<!-- Association RELIER2 -->
<g>
	<line x1="269" y1="194" x2="169" y2="194" stroke="#8073ac" stroke-width="2"/>
	<line x1="58" y1="194" x2="169" y2="194" stroke="#8073ac" stroke-width="2"/>
	<g>
		<path d="M185 169 a14 14 90 0 1 14 14 V194 h-60 V183 a14 14 90 0 1 14 -14" fill="#b2abd2" stroke="#b2abd2" stroke-width="0"/>
		<path d="M199 194 v11 a14 14 90 0 1 -14 14 H153 a14 14 90 0 1 -14 -14 V194 H60" fill="#d8daeb" stroke="#d8daeb" stroke-width="0"/>
		<rect x="139" y="169" width="60" height="50" fill="none" rx="14" stroke="#8073ac" stroke-width="2"/>
		<line x1="139" y1="194" x2="199" y2="194" stroke="#8073ac" stroke-width="1"/>
		<text x="147" y="186.75" fill="#000000" font-family="Verdana" font-size="12">RELIER</text>
	</g>
	<text x="204" y="211" fill="#b35806" font-family="Verdana" font-size="12">0,N</text>
	<text x="112" y="211" fill="#b35806" font-family="Verdana" font-size="12">1,1</text>
</g>

<!-- Association REPONDU -->
<g>
	<line x1="269" y1="194" x2="399" y2="194" stroke="#8073ac" stroke-width="2"/>
	<line x1="529" y1="194" x2="399" y2="194" stroke="#8073ac" stroke-width="2"/>
	<g>
		<path d="M423 169 a14 14 90 0 1 14 14 V194 h-76 V183 a14 14 90 0 1 14 -14" fill="#b2abd2" stroke="#b2abd2" stroke-width="0"/>
		<path d="M437 194 v11 a14 14 90 0 1 -14 14 H375 a14 14 90 0 1 -14 -14 V194 H76" fill="#d8daeb" stroke="#d8daeb" stroke-width="0"/>
		<rect x="361" y="169" width="76" height="50" fill="none" rx="14" stroke="#8073ac" stroke-width="2"/>
		<line x1="361" y1="194" x2="437" y2="194" stroke="#8073ac" stroke-width="1"/>
		<text x="369" y="186.75" fill="#000000" font-family="Verdana" font-size="12">REPONDU</text>
	</g>
	<text x="312" y="211" fill="#b35806" font-family="Verdana" font-size="12">0,N</text>
	<text x="459" y="211" fill="#b35806" font-family="Verdana" font-size="12">0,N</text>
</g>

<!-- Association DISPONIBILITE -->
<g>
	<line x1="529" y1="51" x2="658" y2="194" stroke="#8073ac" stroke-width="2"/>
	<line x1="529" y1="194" x2="658" y2="194" stroke="#8073ac" stroke-width="2"/>
	<g>
		<path d="M698 169 a14 14 90 0 1 14 14 V194 h-108 V183 a14 14 90 0 1 14 -14" fill="#b2abd2" stroke="#b2abd2" stroke-width="0"/>
		<path d="M712 194 v11 a14 14 90 0 1 -14 14 H618 a14 14 90 0 1 -14 -14 V194 H108" fill="#d8daeb" stroke="#d8daeb" stroke-width="0"/>
		<rect x="604" y="169" width="108" height="50" fill="none" rx="14" stroke="#8073ac" stroke-width="2"/>
		<line x1="604" y1="194" x2="712" y2="194" stroke="#8073ac" stroke-width="1"/>
		<text x="611" y="186.75" fill="#000000" font-family="Verdana" font-size="12">DISPONIBILITE</text>
	</g>
	<text x="531.11" y="93" fill="#b35806" font-family="Verdana" font-size="12">0,N</text>
	<text x="577" y="211" fill="#b35806" font-family="Verdana" font-size="12">0,N</text>
</g>

<!-- Association RELIER -->
<g>
	<line x1="269" y1="329" x2="58" y2="329" stroke="#8073ac" stroke-width="2"/>
	<line x1="58" y1="194" x2="58" y2="329" stroke="#8073ac" stroke-width="2"/>
	<g>
		<path d="M74 304 a14 14 90 0 1 14 14 V329 h-60 V318 a14 14 90 0 1 14 -14" fill="#b2abd2" stroke="#b2abd2" stroke-width="0"/>
		<path d="M88 329 v11 a14 14 90 0 1 -14 14 H42 a14 14 90 0 1 -14 -14 V329 H60" fill="#d8daeb" stroke="#d8daeb" stroke-width="0"/>
		<rect x="28" y="304" width="60" height="50" fill="none" rx="14" stroke="#8073ac" stroke-width="2"/>
		<line x1="28" y1="329" x2="88" y2="329" stroke="#8073ac" stroke-width="1"/>
		<text x="36" y="321.75" fill="#000000" font-family="Verdana" font-size="12">RELIER</text>
	</g>
	<text x="201" y="346" fill="#b35806" font-family="Verdana" font-size="12">0,N</text>
	<text x="63" y="253" fill="#b35806" font-family="Verdana" font-size="12">1,1</text>
</g>

<!-- Association PARTICIPER1 -->
<g>
	<line x1="269" y1="329" x2="399" y2="329" stroke="#8073ac" stroke-width="2"/>
	<line x1="529" y1="194" x2="399" y2="329" stroke="#8073ac" stroke-width="2"/>
	<g>
		<path d="M429 304 a14 14 90 0 1 14 14 V329 h-88 V318 a14 14 90 0 1 14 -14" fill="#b2abd2" stroke="#b2abd2" stroke-width="0"/>
		<path d="M443 329 v11 a14 14 90 0 1 -14 14 H369 a14 14 90 0 1 -14 -14 V329 H88" fill="#d8daeb" stroke="#d8daeb" stroke-width="0"/>
		<rect x="355" y="304" width="88" height="50" fill="none" rx="14" stroke="#8073ac" stroke-width="2"/>
		<line x1="355" y1="329" x2="443" y2="329" stroke="#8073ac" stroke-width="1"/>
		<text x="362" y="321.75" fill="#000000" font-family="Verdana" font-size="12">PARTICIPER</text>
		<text x="362" y="346.8" fill="#000000" font-family="Verdana" font-size="12">materiel</text>
	</g>
	<text x="315" y="346" fill="#b35806" font-family="Verdana" font-size="12">0,N</text>
	<text x="459" y="237.54" fill="#b35806" font-family="Verdana" font-size="12">0,N</text>
</g>

<!-- Entity REPETITION -->
<g>
	<g>
		<rect x="215" y="9" width="108" height="25" fill="#fdb863" stroke="none" stroke-width="0" opacity="1"/>
		<rect x="215" y="34" width="108" height="59" fill="#fee0b6" stroke="none" stroke-width="0" opacity="1"/>
		<rect x="215" y="9" width="108" height="84" fill="none" stroke="#e08214" stroke-width="2" opacity="1"/>
		<line x1="215" y1="34" x2="323" y2="34" stroke="#e08214" stroke-width="1"/>
	</g>
	<text x="232" y="26.75" fill="#000000" font-family="Verdana" font-size="12">REPETITION</text>
	<text x="220" y="51.8" fill="#000000" font-family="Verdana" font-size="12">idRepetition</text>
	<line x1="220" y1="54" x2="293" y2="54" stroke="#000000" stroke-width="1"/>
	<text x="220" y="68.8" fill="#000000" font-family="Verdana" font-size="12">dateRepetition</text>
	<text x="220" y="85.8" fill="#000000" font-family="Verdana" font-size="12">dureeRepetition</text>
</g>

<!-- Entity DEMI_JOURNNE -->
<g>
	<g>
		<rect x="475" y="26" width="108" height="25" fill="#fdb863" stroke="none" stroke-width="0" opacity="1"/>
		<rect x="475" y="51" width="108" height="25" fill="#fee0b6" stroke="none" stroke-width="0" opacity="1"/>
		<rect x="475" y="26" width="108" height="50" fill="none" stroke="#e08214" stroke-width="2" opacity="1"/>
		<line x1="475" y1="51" x2="583" y2="51" stroke="#e08214" stroke-width="1"/>
	</g>
	<text x="480" y="43.75" fill="#000000" font-family="Verdana" font-size="12">DEMI_JOURNNE</text>
	<text x="480" y="68.8" fill="#000000" font-family="Verdana" font-size="12">date</text>
	<line x1="480" y1="71" x2="508" y2="71" stroke="#000000" stroke-width="1"/>
</g>

<!-- Entity SONDAGE -->
<g>
	<g>
		<rect x="9" y="152" width="98" height="25" fill="#fdb863" stroke="none" stroke-width="0" opacity="1"/>
		<rect x="9" y="177" width="98" height="59" fill="#fee0b6" stroke="none" stroke-width="0" opacity="1"/>
		<rect x="9" y="152" width="98" height="84" fill="none" stroke="#e08214" stroke-width="2" opacity="1"/>
		<line x1="9" y1="177" x2="107" y2="177" stroke="#e08214" stroke-width="1"/>
	</g>
	<text x="27" y="169.75" fill="#000000" font-family="Verdana" font-size="12">SONDAGE</text>
	<text x="14" y="194.8" fill="#000000" font-family="Verdana" font-size="12">idSondage</text>
	<line x1="14" y1="197" x2="78" y2="197" stroke="#000000" stroke-width="1"/>
	<text x="14" y="211.8" fill="#000000" font-family="Verdana" font-size="12">dateSondage</text>
	<text x="14" y="228.8" fill="#000000" font-family="Verdana" font-size="12">dureeSondage</text>
</g>

<!-- Entity QUESTION -->
<g>
	<g>
		<rect x="231" y="152" width="76" height="25" fill="#fdb863" stroke="none" stroke-width="0" opacity="1"/>
		<rect x="231" y="177" width="76" height="59" fill="#fee0b6" stroke="none" stroke-width="0" opacity="1"/>
		<rect x="231" y="152" width="76" height="84" fill="none" stroke="#e08214" stroke-width="2" opacity="1"/>
		<line x1="231" y1="177" x2="307" y2="177" stroke="#e08214" stroke-width="1"/>
	</g>
	<text x="236" y="169.75" fill="#000000" font-family="Verdana" font-size="12">QUESTION</text>
	<text x="236" y="194.8" fill="#000000" font-family="Verdana" font-size="12">idQuestion</text>
	<line x1="236" y1="197" x2="301" y2="197" stroke="#000000" stroke-width="1"/>
	<text x="236" y="211.8" fill="#000000" font-family="Verdana" font-size="12">intitule</text>
	<text x="236" y="228.8" fill="#000000" font-family="Verdana" font-size="12">questions</text>
</g>

<!-- Entity MUSICIEN -->
<g>
	<g>
		<rect x="486" y="101" width="86" height="25" fill="#fdb863" stroke="none" stroke-width="0" opacity="1"/>
		<rect x="486" y="126" width="86" height="161" fill="#fee0b6" stroke="none" stroke-width="0" opacity="1"/>
		<rect x="486" y="101" width="86" height="186" fill="none" stroke="#e08214" stroke-width="2" opacity="1"/>
		<line x1="486" y1="126" x2="572" y2="126" stroke="#e08214" stroke-width="1"/>
	</g>
	<text x="498" y="118.75" fill="#000000" font-family="Verdana" font-size="12">MUSICIEN</text>
	<text x="491" y="143.8" fill="#000000" font-family="Verdana" font-size="12">idMusicien</text>
	<line x1="491" y1="146" x2="554" y2="146" stroke="#000000" stroke-width="1"/>
	<text x="491" y="160.8" fill="#000000" font-family="Verdana" font-size="12">nom</text>
	<text x="491" y="177.8" fill="#000000" font-family="Verdana" font-size="12">prenom</text>
	<text x="491" y="194.8" fill="#000000" font-family="Verdana" font-size="12">password</text>
	<text x="491" y="211.8" fill="#000000" font-family="Verdana" font-size="12">age</text>
	<text x="491" y="228.8" fill="#000000" font-family="Verdana" font-size="12">adresseMail</text>
	<text x="491" y="245.8" fill="#000000" font-family="Verdana" font-size="12">telephone</text>
	<text x="491" y="262.8" fill="#000000" font-family="Verdana" font-size="12">admin</text>
	<text x="491" y="279.8" fill="#000000" font-family="Verdana" font-size="12">imgMusicien</text>
</g>

<!-- Entity SORTIE -->
<g>
	<g>
		<rect x="228" y="261" width="82" height="25" fill="#fdb863" stroke="none" stroke-width="0" opacity="1"/>
		<rect x="228" y="286" width="82" height="111" fill="#fee0b6" stroke="none" stroke-width="0" opacity="1"/>
		<rect x="228" y="261" width="82" height="136" fill="none" stroke="#e08214" stroke-width="2" opacity="1"/>
		<line x1="228" y1="286" x2="310" y2="286" stroke="#e08214" stroke-width="1"/>
	</g>
	<text x="246" y="278.75" fill="#000000" font-family="Verdana" font-size="12">SORTIE</text>
	<text x="233" y="303.8" fill="#000000" font-family="Verdana" font-size="12">idSortie</text>
	<line x1="233" y1="306" x2="281" y2="306" stroke="#000000" stroke-width="1"/>
	<text x="233" y="320.8" fill="#000000" font-family="Verdana" font-size="12">dateSortie</text>
	<text x="233" y="337.8" fill="#000000" font-family="Verdana" font-size="12">dureeSortie</text>
	<text x="233" y="354.8" fill="#000000" font-family="Verdana" font-size="12">lieu</text>
	<text x="233" y="371.8" fill="#000000" font-family="Verdana" font-size="12">type</text>
	<text x="233" y="388.8" fill="#000000" font-family="Verdana" font-size="12">tenue</text>
</g>
</svg>